<svg id="visual" viewBox="0 0 960 100" width="960" height="100" xmlns="http://www.w3.org/2000/svg" xmlns:xlink="http://www.w3.org/1999/xlink" version="1.1"><rect x="0" y="0" width="960" height="100" fill="#4F8568"></rect><path d="M0 29L42 25L83 21L125 22L167 23L209 32L250 22L292 32L334 24L376 29L417 26L459 25L501 19L543 22L584 32L626 16L668 14L710 26L751 28L793 23L835 22L877 29L918 15L960 18L960 101L918 101L877 101L835 101L793 101L751 101L710 101L668 101L626 101L584 101L543 101L501 101L459 101L417 101L376 101L334 101L292 101L250 101L209 101L167 101L125 101L83 101L42 101L0 101Z" fill="#4f8568"></path><path d="M0 25L42 23L83 34L125 38L167 35L209 25L250 29L292 25L334 23L376 27L417 33L459 23L501 30L543 21L584 34L626 24L668 29L710 26L751 22L793 32L835 28L877 28L918 22L960 28L960 101L918 101L877 101L835 101L793 101L751 101L710 101L668 101L626 101L584 101L543 101L501 101L459 101L417 101L376 101L334 101L292 101L250 101L209 101L167 101L125 101L83 101L42 101L0 101Z" fill="#507b59"></path><path d="M0 36L42 42L83 28L125 33L167 43L209 29L250 31L292 32L334 28L376 35L417 34L459 32L501 36L543 28L584 30L626 41L668 30L710 36L751 42L793 33L835 35L877 36L918 43L960 41L960 101L918 101L877 101L835 101L793 101L751 101L710 101L668 101L626 101L584 101L543 101L501 101L459 101L417 101L376 101L334 101L292 101L250 101L209 101L167 101L125 101L83 101L42 101L0 101Z" fill="#50714b"></path><path d="M0 41L42 45L83 46L125 39L167 48L209 38L250 42L292 35L334 44L376 49L417 38L459 39L501 40L543 37L584 43L626 43L668 43L710 43L751 44L793 38L835 49L877 44L918 42L960 35L960 101L918 101L877 101L835 101L793 101L751 101L710 101L668 101L626 101L584 101L543 101L501 101L459 101L417 101L376 101L334 101L292 101L250 101L209 101L167 101L125 101L83 101L42 101L0 101Z" fill="#50663f"></path><path d="M0 48L42 48L83 48L125 48L167 48L209 44L250 45L292 42L334 55L376 52L417 43L459 52L501 42L543 43L584 53L626 43L668 53L710 50L751 49L793 44L835 42L877 42L918 53L960 47L960 101L918 101L877 101L835 101L793 101L751 101L710 101L668 101L626 101L584 101L543 101L501 101L459 101L417 101L376 101L334 101L292 101L250 101L209 101L167 101L125 101L83 101L42 101L0 101Z" fill="#4f5c34"></path><path d="M0 58L42 49L83 58L125 55L167 60L209 59L250 59L292 53L334 52L376 48L417 54L459 57L501 58L543 56L584 54L626 55L668 57L710 60L751 53L793 50L835 48L877 59L918 61L960 53L960 101L918 101L877 101L835 101L793 101L751 101L710 101L668 101L626 101L584 101L543 101L501 101L459 101L417 101L376 101L334 101L292 101L250 101L209 101L167 101L125 101L83 101L42 101L0 101Z" fill="#4d522a"></path><path d="M0 56L42 61L83 64L125 65L167 55L209 63L250 60L292 63L334 58L376 61L417 60L459 59L501 65L543 66L584 65L626 55L668 63L710 58L751 65L793 64L835 66L877 60L918 58L960 59L960 101L918 101L877 101L835 101L793 101L751 101L710 101L668 101L626 101L584 101L543 101L501 101L459 101L417 101L376 101L334 101L292 101L250 101L209 101L167 101L125 101L83 101L42 101L0 101Z" fill="#4b4821"></path><path d="M0 67L42 64L83 64L125 69L167 62L209 66L250 69L292 72L334 69L376 66L417 65L459 62L501 64L543 62L584 62L626 70L668 66L710 69L751 62L793 64L835 64L877 71L918 64L960 70L960 101L918 101L877 101L835 101L793 101L751 101L710 101L668 101L626 101L584 101L543 101L501 101L459 101L417 101L376 101L334 101L292 101L250 101L209 101L167 101L125 101L83 101L42 101L0 101Z" fill="#483e19"></path><path d="M0 68L42 76L83 74L125 75L167 77L209 76L250 77L292 74L334 70L376 77L417 69L459 77L501 68L543 75L584 78L626 74L668 76L710 69L751 75L793 77L835 68L877 74L918 74L960 69L960 101L918 101L877 101L835 101L793 101L751 101L710 101L668 101L626 101L584 101L543 101L501 101L459 101L417 101L376 101L334 101L292 101L250 101L209 101L167 101L125 101L83 101L42 101L0 101Z" fill="#443413"></path><path d="M0 81L42 77L83 80L125 80L167 75L209 76L250 77L292 77L334 82L376 76L417 78L459 80L501 78L543 81L584 75L626 79L668 81L710 77L751 81L793 79L835 76L877 83L918 77L960 82L960 101L918 101L877 101L835 101L793 101L751 101L710 101L668 101L626 101L584 101L543 101L501 101L459 101L417 101L376 101L334 101L292 101L250 101L209 101L167 101L125 101L83 101L42 101L0 101Z" fill="#3f2b0e"></path><path d="M0 84L42 82L83 88L125 82L167 85L209 84L250 84L292 84L334 82L376 84L417 83L459 88L501 83L543 86L584 89L626 87L668 84L710 87L751 83L793 82L835 88L877 89L918 82L960 83L960 101L918 101L877 101L835 101L793 101L751 101L710 101L668 101L626 101L584 101L543 101L501 101L459 101L417 101L376 101L334 101L292 101L250 101L209 101L167 101L125 101L83 101L42 101L0 101Z" fill="#3a2107"></path><path d="M0 94L42 92L83 92L125 92L167 91L209 92L250 88L292 93L334 91L376 91L417 88L459 90L501 94L543 88L584 92L626 94L668 91L710 90L751 90L793 89L835 90L877 93L918 93L960 91L960 101L918 101L877 101L835 101L793 101L751 101L710 101L668 101L626 101L584 101L543 101L501 101L459 101L417 101L376 101L334 101L292 101L250 101L209 101L167 101L125 101L83 101L42 101L0 101Z" fill="#351801"></path></svg>