<svg id="visual" viewBox="0 0 960 100" width="960" height="100" xmlns="http://www.w3.org/2000/svg" xmlns:xlink="http://www.w3.org/1999/xlink" version="1.1"><rect x="0" y="0" width="960" height="100" fill="#8f0000"></rect><path d="M0 83L42 83L42 85L83 85L83 79L125 79L125 87L167 87L167 93L209 93L209 80L250 80L250 90L292 90L292 79L334 79L334 87L376 87L376 88L417 88L417 86L459 86L459 77L501 77L501 92L543 92L543 77L584 77L584 89L626 89L626 86L668 86L668 79L710 79L710 90L751 90L751 83L793 83L793 88L835 88L835 90L877 90L877 86L918 86L918 80L960 80L960 85L960 0L960 0L918 0L918 0L877 0L877 0L835 0L835 0L793 0L793 0L751 0L751 0L710 0L710 0L668 0L668 0L626 0L626 0L584 0L584 0L543 0L543 0L501 0L501 0L459 0L459 0L417 0L417 0L376 0L376 0L334 0L334 0L292 0L292 0L250 0L250 0L209 0L209 0L167 0L167 0L125 0L125 0L83 0L83 0L42 0L42 0L0 0Z" fill="#8f0000"></path><path d="M0 71L42 71L42 71L83 71L83 69L125 69L125 74L167 74L167 77L209 77L209 77L250 77L250 80L292 80L292 74L334 74L334 68L376 68L376 75L417 75L417 83L459 83L459 81L501 81L501 77L543 77L543 78L584 78L584 73L626 73L626 77L668 77L668 78L710 78L710 75L751 75L751 76L793 76L793 75L835 75L835 79L877 79L877 80L918 80L918 83L960 83L960 73L960 0L960 0L918 0L918 0L877 0L877 0L835 0L835 0L793 0L793 0L751 0L751 0L710 0L710 0L668 0L668 0L626 0L626 0L584 0L584 0L543 0L543 0L501 0L501 0L459 0L459 0L417 0L417 0L376 0L376 0L334 0L334 0L292 0L292 0L250 0L250 0L209 0L209 0L167 0L167 0L125 0L125 0L83 0L83 0L42 0L42 0L0 0Z" fill="#872d00"></path><path d="M0 60L42 60L42 61L83 61L83 69L125 69L125 63L167 63L167 71L209 71L209 72L250 72L250 73L292 73L292 65L334 65L334 65L376 65L376 60L417 60L417 73L459 73L459 67L501 67L501 72L543 72L543 59L584 59L584 72L626 72L626 59L668 59L668 70L710 70L710 73L751 73L751 60L793 60L793 68L835 68L835 63L877 63L877 70L918 70L918 68L960 68L960 63L960 0L960 0L918 0L918 0L877 0L877 0L835 0L835 0L793 0L793 0L751 0L751 0L710 0L710 0L668 0L668 0L626 0L626 0L584 0L584 0L543 0L543 0L501 0L501 0L459 0L459 0L417 0L417 0L376 0L376 0L334 0L334 0L292 0L292 0L250 0L250 0L209 0L209 0L167 0L167 0L125 0L125 0L83 0L83 0L42 0L42 0L0 0Z" fill="#7d4300"></path><path d="M0 63L42 63L42 60L83 60L83 56L125 56L125 59L167 59L167 57L209 57L209 63L250 63L250 63L292 63L292 60L334 60L334 62L376 62L376 62L417 62L417 63L459 63L459 58L501 58L501 52L543 52L543 54L584 54L584 59L626 59L626 52L668 52L668 59L710 59L710 50L751 50L751 62L793 62L793 52L835 52L835 60L877 60L877 55L918 55L918 56L960 56L960 60L960 0L960 0L918 0L918 0L877 0L877 0L835 0L835 0L793 0L793 0L751 0L751 0L710 0L710 0L668 0L668 0L626 0L626 0L584 0L584 0L543 0L543 0L501 0L501 0L459 0L459 0L417 0L417 0L376 0L376 0L334 0L334 0L292 0L292 0L250 0L250 0L209 0L209 0L167 0L167 0L125 0L125 0L83 0L83 0L42 0L42 0L0 0Z" fill="#725300"></path><path d="M0 40L42 40L42 47L83 47L83 51L125 51L125 54L167 54L167 42L209 42L209 53L250 53L250 42L292 42L292 42L334 42L334 44L376 44L376 48L417 48L417 44L459 44L459 52L501 52L501 49L543 49L543 47L584 47L584 41L626 41L626 52L668 52L668 45L710 45L710 42L751 42L751 53L793 53L793 49L835 49L835 47L877 47L877 42L918 42L918 43L960 43L960 47L960 0L960 0L918 0L918 0L877 0L877 0L835 0L835 0L793 0L793 0L751 0L751 0L710 0L710 0L668 0L668 0L626 0L626 0L584 0L584 0L543 0L543 0L501 0L501 0L459 0L459 0L417 0L417 0L376 0L376 0L334 0L334 0L292 0L292 0L250 0L250 0L209 0L209 0L167 0L167 0L125 0L125 0L83 0L83 0L42 0L42 0L0 0Z" fill="#676002"></path><path d="M0 35L42 35L42 34L83 34L83 35L125 35L125 37L167 37L167 40L209 40L209 33L250 33L250 34L292 34L292 34L334 34L334 35L376 35L376 32L417 32L417 34L459 34L459 39L501 39L501 36L543 36L543 32L584 32L584 31L626 31L626 36L668 36L668 36L710 36L710 42L751 42L751 38L793 38L793 41L835 41L835 38L877 38L877 35L918 35L918 43L960 43L960 42L960 0L960 0L918 0L918 0L877 0L877 0L835 0L835 0L793 0L793 0L751 0L751 0L710 0L710 0L668 0L668 0L626 0L626 0L584 0L584 0L543 0L543 0L501 0L501 0L459 0L459 0L417 0L417 0L376 0L376 0L334 0L334 0L292 0L292 0L250 0L250 0L209 0L209 0L167 0L167 0L125 0L125 0L83 0L83 0L42 0L42 0L0 0Z" fill="#5d6b21"></path><path d="M0 23L42 23L42 28L83 28L83 30L125 30L125 30L167 30L167 22L209 22L209 33L250 33L250 28L292 28L292 22L334 22L334 28L376 28L376 24L417 24L417 29L459 29L459 31L501 31L501 32L543 32L543 34L584 34L584 31L626 31L626 33L668 33L668 30L710 30L710 32L751 32L751 27L793 27L793 28L835 28L835 33L877 33L877 29L918 29L918 27L960 27L960 24L960 0L960 0L918 0L918 0L877 0L877 0L835 0L835 0L793 0L793 0L751 0L751 0L710 0L710 0L668 0L668 0L626 0L626 0L584 0L584 0L543 0L543 0L501 0L501 0L459 0L459 0L417 0L417 0L376 0L376 0L334 0L334 0L292 0L292 0L250 0L250 0L209 0L209 0L167 0L167 0L125 0L125 0L83 0L83 0L42 0L42 0L0 0Z" fill="#55753a"></path><path d="M0 25L42 25L42 17L83 17L83 13L125 13L125 19L167 19L167 14L209 14L209 22L250 22L250 18L292 18L292 15L334 15L334 24L376 24L376 21L417 21L417 18L459 18L459 14L501 14L501 13L543 13L543 21L584 21L584 24L626 24L626 21L668 21L668 18L710 18L710 21L751 21L751 18L793 18L793 17L835 17L835 17L877 17L877 22L918 22L918 22L960 22L960 19L960 0L960 0L918 0L918 0L877 0L877 0L835 0L835 0L793 0L793 0L751 0L751 0L710 0L710 0L668 0L668 0L626 0L626 0L584 0L584 0L543 0L543 0L501 0L501 0L459 0L459 0L417 0L417 0L376 0L376 0L334 0L334 0L292 0L292 0L250 0L250 0L209 0L209 0L167 0L167 0L125 0L125 0L83 0L83 0L42 0L42 0L0 0Z" fill="#4f7e52"></path><path d="M0 11L42 11L42 6L83 6L83 5L125 5L125 11L167 11L167 11L209 11L209 8L250 8L250 7L292 7L292 10L334 10L334 15L376 15L376 14L417 14L417 7L459 7L459 11L501 11L501 12L543 12L543 8L584 8L584 6L626 6L626 10L668 10L668 8L710 8L710 12L751 12L751 4L793 4L793 14L835 14L835 6L877 6L877 10L918 10L918 8L960 8L960 8L960 0L960 0L918 0L918 0L877 0L877 0L835 0L835 0L793 0L793 0L751 0L751 0L710 0L710 0L668 0L668 0L626 0L626 0L584 0L584 0L543 0L543 0L501 0L501 0L459 0L459 0L417 0L417 0L376 0L376 0L334 0L334 0L292 0L292 0L250 0L250 0L209 0L209 0L167 0L167 0L125 0L125 0L83 0L83 0L42 0L42 0L0 0Z" fill="#4f8568"></path></svg>