<svg id="visual" viewBox="0 0 960 100" width="960" height="100" xmlns="http://www.w3.org/2000/svg" xmlns:xlink="http://www.w3.org/1999/xlink" version="1.1"><rect x="0" y="0" width="960" height="100" fill="#4f8568"></rect><path d="M0 84L22.8 85C45.7 86 91.3 88 137 89.3C182.7 90.7 228.3 91.3 274 90.5C319.7 89.7 365.3 87.3 411.2 86.2C457 85 503 85 548.8 84.7C594.7 84.3 640.3 83.7 686 84.8C731.7 86 777.3 89 823 90.5C868.7 92 914.3 92 937.2 92L960 92L960 0L937.2 0C914.3 0 868.7 0 823 0C777.3 0 731.7 0 686 0C640.3 0 594.7 0 548.8 0C503 0 457 0 411.2 0C365.3 0 319.7 0 274 0C228.3 0 182.7 0 137 0C91.3 0 45.7 0 22.8 0L0 0Z" fill="#4f8568"></path><path d="M0 73L22.8 73C45.7 73 91.3 73 137 73.2C182.7 73.3 228.3 73.7 274 74.3C319.7 75 365.3 76 411.2 76.2C457 76.3 503 75.7 548.8 75.8C594.7 76 640.3 77 686 77.3C731.7 77.7 777.3 77.3 823 76.2C868.7 75 914.3 73 937.2 72L960 71L960 0L937.2 0C914.3 0 868.7 0 823 0C777.3 0 731.7 0 686 0C640.3 0 594.7 0 548.8 0C503 0 457 0 411.2 0C365.3 0 319.7 0 274 0C228.3 0 182.7 0 137 0C91.3 0 45.7 0 22.8 0L0 0Z" fill="#3a7362"></path><path d="M0 64L22.8 64.8C45.7 65.7 91.3 67.3 137 68C182.7 68.7 228.3 68.3 274 67.8C319.7 67.3 365.3 66.7 411.2 66C457 65.3 503 64.7 548.8 63.8C594.7 63 640.3 62 686 61.5C731.7 61 777.3 61 823 61.2C868.7 61.3 914.3 61.7 937.2 61.8L960 62L960 0L937.2 0C914.3 0 868.7 0 823 0C777.3 0 731.7 0 686 0C640.3 0 594.7 0 548.8 0C503 0 457 0 411.2 0C365.3 0 319.7 0 274 0C228.3 0 182.7 0 137 0C91.3 0 45.7 0 22.8 0L0 0Z" fill="#296159"></path><path d="M0 51L22.8 51.3C45.7 51.7 91.3 52.3 137 53C182.7 53.7 228.3 54.3 274 53.7C319.7 53 365.3 51 411.2 51.7C457 52.3 503 55.7 548.8 56.8C594.7 58 640.3 57 686 56.2C731.7 55.3 777.3 54.7 823 55C868.7 55.3 914.3 56.7 937.2 57.3L960 58L960 0L937.2 0C914.3 0 868.7 0 823 0C777.3 0 731.7 0 686 0C640.3 0 594.7 0 548.8 0C503 0 457 0 411.2 0C365.3 0 319.7 0 274 0C228.3 0 182.7 0 137 0C91.3 0 45.7 0 22.8 0L0 0Z" fill="#1c504f"></path><path d="M0 42L22.8 42.7C45.7 43.3 91.3 44.7 137 44.2C182.7 43.7 228.3 41.3 274 41.7C319.7 42 365.3 45 411.2 46.3C457 47.7 503 47.3 548.8 46.5C594.7 45.7 640.3 44.3 686 43.8C731.7 43.3 777.3 43.7 823 44C868.7 44.3 914.3 44.7 937.2 44.8L960 45L960 0L937.2 0C914.3 0 868.7 0 823 0C777.3 0 731.7 0 686 0C640.3 0 594.7 0 548.8 0C503 0 457 0 411.2 0C365.3 0 319.7 0 274 0C228.3 0 182.7 0 137 0C91.3 0 45.7 0 22.8 0L0 0Z" fill="#153e43"></path><path d="M0 29L22.8 29C45.7 29 91.3 29 137 29.5C182.7 30 228.3 31 274 31C319.7 31 365.3 30 411.2 30.3C457 30.7 503 32.3 548.8 33.7C594.7 35 640.3 36 686 35.5C731.7 35 777.3 33 823 32.8C868.7 32.7 914.3 34.3 937.2 35.2L960 36L960 0L937.2 0C914.3 0 868.7 0 823 0C777.3 0 731.7 0 686 0C640.3 0 594.7 0 548.8 0C503 0 457 0 411.2 0C365.3 0 319.7 0 274 0C228.3 0 182.7 0 137 0C91.3 0 45.7 0 22.8 0L0 0Z" fill="#102e34"></path><path d="M0 20L22.8 20.8C45.7 21.7 91.3 23.3 137 24.2C182.7 25 228.3 25 274 24.2C319.7 23.3 365.3 21.7 411.2 20.2C457 18.7 503 17.3 548.8 18.2C594.7 19 640.3 22 686 23.7C731.7 25.3 777.3 25.7 823 26C868.7 26.3 914.3 26.7 937.2 26.8L960 27L960 0L937.2 0C914.3 0 868.7 0 823 0C777.3 0 731.7 0 686 0C640.3 0 594.7 0 548.8 0C503 0 457 0 411.2 0C365.3 0 319.7 0 274 0C228.3 0 182.7 0 137 0C91.3 0 45.7 0 22.8 0L0 0Z" fill="#0c1e25"></path><path d="M0 12L22.8 12C45.7 12 91.3 12 137 12.2C182.7 12.3 228.3 12.7 274 11.8C319.7 11 365.3 9 411.2 8.7C457 8.3 503 9.7 548.8 10.3C594.7 11 640.3 11 686 10.8C731.7 10.7 777.3 10.3 823 9.5C868.7 8.7 914.3 7.3 937.2 6.7L960 6L960 0L937.2 0C914.3 0 868.7 0 823 0C777.3 0 731.7 0 686 0C640.3 0 594.7 0 548.8 0C503 0 457 0 411.2 0C365.3 0 319.7 0 274 0C228.3 0 182.7 0 137 0C91.3 0 45.7 0 22.8 0L0 0Z" fill="#010d14"></path></svg>